# xmcd
#
# Track frame offsets:
#	150
#	21465
#	34996
#	52275
#	66632
#	89640
#	104828
#	121743
#	138480
#	154841
#	180916
#	194341
#	209831
#	223923
#	244083
#	253079
#	285132
#
# Disc length: 3967 seconds
# Revision: 1
# Processed by: cddbd v1.5.2PL0 Copyright (c) Steve Scherf et al.
# Submitted via: jack 3.1.1
#
DISCID=160f7d11
DTITLE=Peter Green and The Original Fleetwood Mac - Alone With The Blues CD1
DYEAR=2015
DGENRE=Rock
TTITLE0=Fleetwood Mac - The Green Manalishi (With The Two Prong Crown) (Fleetwood Mac)
TTITLE1=Fleetwood Mac - Man of the World
TTITLE2=Peter Green - Walkin' The Road
TTITLE3=Peter Green - Apostle
TTITLE4=Peter Green - Cryin' Won't Bring You Back
TTITLE5=Fleetwood Mac - Fast Talkin' Woman Blues (Fleetwood Mac)
TTITLE6=Peter Green - Trying To Hit My Head Against The Wall
TTITLE7=Peter Green - Same Old Blues
TTITLE8=Peter Green - You Won't See Me Anymore
TTITLE9=Peter Green - Got To See Her Tonight
TTITLE10=Peter Green - Born On The Wild Side
TTITLE11=Peter Green - Ride With Your Daddy Tonight
TTITLE12=Peter Green - Shining Star
TTITLE13=Peter Green - Loser Two Times
TTITLE14=Fleetwood Mac - Long Grey Mare (Fleetwood Mac)
TTITLE15=Fleetwood Mac - Black Magic Woman (Live) (Fleetwood Mac)
TTITLE16=Fleetwood Mac - Oh Well (Live) (Fleetwood Mac)
EXTD=
EXTT0=
EXTT1=
EXTT2=
EXTT3=
EXTT4=
EXTT5=
EXTT6=
EXTT7=
EXTT8=
EXTT9=
EXTT10=
EXTT11=
EXTT12=
EXTT13=
EXTT14=
EXTT15=
EXTT16=
PLAYORDER=
